<?xml version="1.0" encoding="utf-8"?>
<!-- Generator: Adobe Illustrator 16.0.0, SVG Export Plug-In . SVG Version: 6.00 Build 0)  -->
<!DOCTYPE svg PUBLIC "-//W3C//DTD SVG 1.1//EN" "http://www.w3.org/Graphics/SVG/1.1/DTD/svg11.dtd">
<svg version="1.1" id="Layer_1" xmlns="http://www.w3.org/2000/svg" xmlns:xlink="http://www.w3.org/1999/xlink" x="0px" y="0px"
	 width="62px" height="26px" viewBox="0 0 62 26" enable-background="new 0 0 62 26" xml:space="preserve">
<polygon fill-rule="evenodd" clip-rule="evenodd" fill="#D06B52" points="31,26 62,0 0,0 14.941,12.531 "/>
<polygon fill-rule="evenodd" clip-rule="evenodd" fill="#FFFFFF" points="59.777,0 45.389,12.068 31,24.137 16.611,12.07 
	2.223,0.002 31,0 "/>
<path fill="#D06B52" d="M26.242,11.15l8.147-0.016l0,0h0.25c0.624,0.002,1.136-0.496,1.136-1.119
	c0.003-0.615-0.501-1.125-1.128-1.125l-8.413,0.014c-0.627,0-1.132,0.51-1.129,1.127C25.105,10.654,25.618,11.152,26.242,11.15z"/>
<path fill="#D06B52" d="M26.242,7.396l8.147-0.016l0,0h0.25c0.624,0.004,1.136-0.496,1.136-1.119
	c0.003-0.615-0.501-1.125-1.128-1.125L26.234,5.15c-0.627,0-1.132,0.51-1.129,1.127C25.105,6.9,25.618,7.398,26.242,7.396z"/>
<path fill="#D06B52" d="M26.242,14.809l8.147-0.016l0,0h0.25c0.624,0.002,1.136-0.496,1.136-1.119
	c0.003-0.615-0.501-1.127-1.128-1.127l-8.413,0.014c-0.627,0-1.132,0.512-1.129,1.127C25.105,14.312,25.618,14.811,26.242,14.809z"
	/>
</svg>
