<?xml version="1.0" encoding="utf-8"?>
<!-- Generator: Adobe Illustrator 16.0.0, SVG Export Plug-In . SVG Version: 6.00 Build 0)  -->
<!DOCTYPE svg PUBLIC "-//W3C//DTD SVG 1.1//EN" "http://www.w3.org/Graphics/SVG/1.1/DTD/svg11.dtd">
<svg version="1.1" id="Layer_1" xmlns="http://www.w3.org/2000/svg" xmlns:xlink="http://www.w3.org/1999/xlink" x="0px" y="0px"
	 width="17px" height="17px" viewBox="0 0 17 17" enable-background="new 0 0 17 17" xml:space="preserve">
<path fill="#FFFFFF" d="M0.655,5.97h11.737l1.236-4.629c0.061-0.299,0.326-0.525,0.645-0.525h1.923c0.362,0,0.656,0.294,0.656,0.659
	c0,0.362-0.294,0.658-0.656,0.658h-1.422l-2.984,11.134c0.228,0.087,0.433,0.222,0.603,0.39c0.308,0.306,0.498,0.729,0.498,1.195
	c0,0.468-0.19,0.893-0.498,1.198l-0.025,0.022c-0.307,0.293-0.719,0.472-1.176,0.472c-0.464,0-0.888-0.187-1.195-0.494
	c-0.308-0.306-0.494-0.73-0.494-1.198c0-0.332,0.094-0.637,0.256-0.898H4.794c0.163,0.262,0.256,0.566,0.256,0.898
	c0,0.468-0.189,0.893-0.498,1.198c-0.304,0.308-0.729,0.494-1.197,0.494c-0.466,0-0.892-0.187-1.196-0.494
	c-0.308-0.306-0.497-0.73-0.497-1.198c0-0.332,0.096-0.644,0.263-0.907c-0.323-0.044-0.567-0.319-0.567-0.651
	c0-0.36,0.292-0.657,0.654-0.657h8.59l0.434-1.626H1.616c-0.326,0-0.594-0.237-0.645-0.545L0.022,6.79
	c-0.094-0.349,0.121-0.708,0.471-0.798c0.053-0.013,0.107-0.02,0.162-0.02V5.97z M6.807,5.053L6.807,5.053h0.003h0.006H6.82h0.006
	h0.005h0.006h0.004l0.012-0.009h0.006h0.001h0.007l0.006-0.001H6.88h0.005l0.002-0.005l0.013-0.001L6.907,5.03h0.004l0.022-0.007
	L6.94,5.017l0.006-0.002h0.003l0.003-0.004l0.007-0.003h0.003l0.003-0.005l0.007-0.004h0.005l0.001-0.002l0.004-0.004h0.002
	L6.991,4.99l0.001-0.006l0.018-0.007l0.004-0.005L7.019,4.97l0.003-0.005l0.006-0.001l0.007-0.006l0.007-0.009l0.007-0.007
	l0.006-0.011l0.006-0.002l2.426-2.425c0.154-0.156,0.154-0.405,0-0.558c-0.154-0.15-0.405-0.15-0.555,0l-1.77,1.769V0.393
	C7.163,0.177,6.985,0,6.771,0C6.554,0,6.376,0.177,6.376,0.393v3.321L4.61,1.946c-0.15-0.15-0.406-0.15-0.561,0
	c-0.15,0.153-0.15,0.401,0,0.558l2.43,2.425l0.006,0.002l0.008,0.011L6.5,4.948l0.006,0.009l0.007,0.006l0.008,0.001L6.524,4.97
	l0.003,0.002L6.53,4.977l0.018,0.007L6.55,4.99l0.003,0.002h0.003l0.004,0.004l0.002,0.002H6.57l0.006,0.004l0.002,0.005h0.004
	L6.59,5.011l0.001,0.004h0.005l0.001,0.002l0.005,0.006L6.63,5.03h0.006v0.006l0.013,0.001l0.002,0.005h0.007h0.011l0.003,0.001
	h0.004h0.006h0.003l0.014,0.009h0.003h0.009h0H6.72h0.005h0.006h0.002L6.771,5.06L6.807,5.053z M11.183,13.943L11.183,13.943
	c-0.022,0.007-0.05,0.007-0.076,0.007v0.002h-0.018c-0.209,0.021-0.398,0.119-0.538,0.256c-0.167,0.162-0.264,0.396-0.264,0.643
	c0,0.254,0.097,0.479,0.264,0.641c0.161,0.162,0.391,0.266,0.64,0.266c0.245,0,0.463-0.097,0.625-0.246l0.018-0.02
	c0.163-0.161,0.268-0.387,0.268-0.641c0-0.247-0.104-0.48-0.268-0.643c-0.16-0.161-0.39-0.265-0.643-0.265H11.183z M3.462,13.952
	L3.462,13.952H3.248c-0.2,0.021-0.381,0.113-0.516,0.238l-0.016,0.018c-0.167,0.162-0.268,0.396-0.268,0.643
	c0,0.254,0.101,0.479,0.268,0.641H2.712c0.165,0.168,0.39,0.266,0.643,0.266c0.249,0,0.477-0.104,0.644-0.266
	c0.162-0.161,0.264-0.387,0.264-0.641c0-0.247-0.102-0.48-0.264-0.643C3.855,14.071,3.669,13.974,3.462,13.952z M12.032,7.28
	L12.032,7.28H1.501l0.625,2.416h9.264V9.688L12.032,7.28z"/>
</svg>
