<?xml version="1.0" encoding="utf-8"?>
<!-- Generator: Adobe Illustrator 16.0.0, SVG Export Plug-In . SVG Version: 6.00 Build 0)  -->
<!DOCTYPE svg PUBLIC "-//W3C//DTD SVG 1.1//EN" "http://www.w3.org/Graphics/SVG/1.1/DTD/svg11.dtd">
<svg version="1.1" id="Layer_1" xmlns="http://www.w3.org/2000/svg" xmlns:xlink="http://www.w3.org/1999/xlink" x="0px" y="0px"
	 width="126px" height="29px" viewBox="0 0 126 29" enable-background="new 0 0 126 29" xml:space="preserve">
<path fill="#FFFFFF" d="M53.805,11.52c0.134-0.091,0.265-0.277,0.391-0.557c0.127-0.285,0.25-0.688,0.368-1.209
	c0.12-0.521,0.235-1.189,0.347-1.999c0.034-0.257,0.08-0.616,0.135-1.079c0.055-0.466,0.114-1.007,0.177-1.624
	c0.063-0.62,0.123-1.292,0.181-2.011c0.058-0.723,0.105-1.466,0.145-2.24h4.438V11.52H53.805z M51.545,15.356h0.87v-3.014h8.474
	v3.014h0.87V11.52h-0.786V0h-6.297c-0.051,1.074-0.112,2.078-0.184,3.006s-0.146,1.762-0.225,2.504
	c-0.078,0.743-0.155,1.375-0.229,1.893c-0.111,0.802-0.225,1.466-0.341,1.991c-0.115,0.521-0.241,0.932-0.377,1.236
	c-0.136,0.3-0.29,0.518-0.462,0.652s-0.37,0.213-0.595,0.237h-0.72V15.356z"/>
<path fill="#FFFFFF" d="M71.04,7.688c0,1.371-0.273,2.386-0.824,3.054c-0.549,0.667-1.38,1-2.492,0.995
	c-0.688,0.004-1.275-0.138-1.762-0.422c-0.486-0.289-0.857-0.731-1.115-1.328c-0.258-0.596-0.387-1.367-0.389-2.299V7.553
	c-0.001-0.825,0.118-1.537,0.357-2.137c0.238-0.601,0.602-1.062,1.089-1.387c0.488-0.328,1.106-0.494,1.853-0.498
	c0.773,0.008,1.402,0.178,1.886,0.51c0.483,0.335,0.838,0.802,1.063,1.406c0.225,0.601,0.336,1.3,0.334,2.105V7.688z M72.011,7.921
	V7.316c0.002-0.652-0.08-1.256-0.244-1.81c-0.164-0.557-0.418-1.043-0.764-1.458c-0.344-0.415-0.788-0.735-1.33-0.968
	c-0.543-0.229-1.193-0.348-1.949-0.352c-0.688,0.004-1.295,0.119-1.823,0.344c-0.528,0.226-0.973,0.542-1.333,0.952
	c-0.361,0.411-0.634,0.893-0.818,1.454c-0.186,0.557-0.278,1.169-0.279,1.837v0.604c0.005,1.015,0.182,1.865,0.53,2.548
	c0.349,0.684,0.84,1.197,1.476,1.541c0.635,0.344,1.384,0.518,2.248,0.518c0.891-0.004,1.656-0.186,2.295-0.545
	c0.639-0.359,1.129-0.881,1.473-1.564C71.833,9.734,72.007,8.901,72.011,7.921z"/>
<path fill="#FFFFFF" d="M80.699,11.891v-0.924c-0.199,0.122-0.444,0.233-0.737,0.335c-0.293,0.103-0.611,0.19-0.953,0.253
	c-0.344,0.063-0.689,0.099-1.039,0.099c-0.637,0.008-1.199-0.115-1.688-0.368c-0.49-0.249-0.873-0.664-1.152-1.248
	c-0.278-0.581-0.42-1.363-0.426-2.351V7.518c0.006-0.933,0.148-1.687,0.429-2.264c0.28-0.577,0.665-1,1.151-1.265
	c0.487-0.265,1.043-0.395,1.668-0.391c0.547,0.008,1.041,0.071,1.484,0.194s0.825,0.272,1.145,0.442V3.247
	c-0.15-0.079-0.354-0.162-0.607-0.241c-0.254-0.083-0.554-0.15-0.898-0.206c-0.346-0.055-0.73-0.087-1.156-0.087
	c-0.863,0-1.612,0.178-2.244,0.537c-0.633,0.36-1.121,0.885-1.467,1.584s-0.521,1.561-0.525,2.583v0.399
	c0.005,1.099,0.185,1.996,0.538,2.687c0.354,0.695,0.851,1.209,1.491,1.533c0.641,0.328,1.393,0.49,2.258,0.49
	c0.451-0.004,0.85-0.04,1.195-0.103c0.346-0.067,0.645-0.146,0.896-0.245C80.314,12.085,80.526,11.986,80.699,11.891z"/>
<polygon fill="#FFFFFF" points="88.857,3.868 88.857,3.014 81.657,3.014 81.657,3.868 84.771,3.868 84.771,12.342 85.759,12.342 
	85.759,3.868 "/>
<path fill="#FFFFFF" d="M96.259,9.193c-0.002,0.458-0.115,0.877-0.34,1.26c-0.226,0.379-0.551,0.684-0.977,0.913
	c-0.426,0.233-0.941,0.352-1.547,0.355c-0.539,0-1.016-0.095-1.426-0.28c-0.411-0.19-0.733-0.47-0.965-0.842
	c-0.232-0.375-0.352-0.837-0.355-1.391V8.96c0.004-0.466,0.121-0.881,0.352-1.241c0.229-0.355,0.55-0.64,0.961-0.841
	c0.41-0.206,0.889-0.308,1.434-0.312c0.438,0,0.831,0.067,1.183,0.202c0.351,0.13,0.651,0.308,0.903,0.533
	c0.25,0.226,0.441,0.478,0.575,0.763c0.134,0.281,0.201,0.577,0.202,0.881V9.193z M97.197,12.342V5.357
	c0.001-0.316-0.058-0.628-0.177-0.937c-0.118-0.308-0.307-0.588-0.564-0.837c-0.258-0.253-0.595-0.455-1.011-0.604
	s-0.921-0.229-1.514-0.233c-0.683,0.004-1.285,0.067-1.809,0.186c-0.522,0.119-0.942,0.261-1.256,0.435v0.822
	c0.216-0.119,0.479-0.229,0.79-0.332c0.311-0.099,0.648-0.182,1.016-0.245c0.367-0.06,0.742-0.091,1.125-0.095
	c0.621,0.008,1.111,0.099,1.472,0.281c0.36,0.178,0.616,0.415,0.769,0.703c0.152,0.289,0.226,0.597,0.221,0.924v2.027
	c-0.187-0.352-0.431-0.648-0.732-0.885c-0.303-0.237-0.646-0.419-1.035-0.542c-0.387-0.118-0.803-0.182-1.246-0.182
	c-0.74,0.008-1.373,0.15-1.902,0.427c-0.529,0.276-0.936,0.66-1.219,1.142c-0.283,0.486-0.426,1.039-0.429,1.663v0.17
	c0.003,0.553,0.093,1.031,0.269,1.434c0.178,0.403,0.42,0.739,0.732,1.003c0.311,0.261,0.669,0.458,1.076,0.585
	c0.406,0.13,0.842,0.193,1.305,0.193c0.496-0.004,0.96-0.075,1.392-0.217c0.433-0.142,0.805-0.348,1.12-0.616
	c0.314-0.272,0.543-0.597,0.688-0.976l0.066,1.691H97.197z"/>
<path fill="#FFFFFF" d="M105.282,9.627c0.003,0.632-0.17,1.114-0.52,1.45c-0.349,0.34-0.891,0.506-1.624,0.51h-2.663V7.755h2.78
	c0.452,0,0.828,0.079,1.128,0.237c0.301,0.154,0.525,0.372,0.674,0.652C105.208,8.924,105.282,9.252,105.282,9.627z M104.931,5.393
	c-0.005,0.521-0.139,0.917-0.4,1.193c-0.262,0.272-0.625,0.411-1.09,0.415h-2.965V3.8h2.68c0.572,0,1.01,0.13,1.314,0.387
	C104.774,4.448,104.928,4.851,104.931,5.393z M106.286,9.679c0-0.411-0.076-0.786-0.231-1.122c-0.153-0.336-0.382-0.613-0.686-0.834
	c-0.304-0.217-0.679-0.352-1.126-0.407c0.379-0.047,0.688-0.166,0.928-0.36c0.24-0.193,0.416-0.438,0.529-0.734
	c0.113-0.3,0.169-0.632,0.168-1c0.001-0.419-0.088-0.794-0.268-1.122c-0.18-0.324-0.455-0.581-0.826-0.767
	c-0.371-0.189-0.844-0.284-1.418-0.284h-3.852v9.292h3.768c0.969,0,1.711-0.226,2.229-0.672
	C106.02,11.224,106.282,10.56,106.286,9.679z"/>
<path fill="#FFFFFF" d="M113.354,3.014c0.001,0.845-0.025,1.537-0.081,2.082c-0.057,0.541-0.151,0.96-0.285,1.26
	c-0.133,0.3-0.314,0.51-0.545,0.624c-0.23,0.119-0.518,0.174-0.863,0.17c-0.047,0-0.154,0-0.324,0c-0.172,0-0.371,0-0.6,0
	c-0.229,0-0.455,0-0.676,0s-0.404,0-0.551,0s-0.223,0-0.229,0V3.014h-0.971v9.328h0.971V7.905h2.463
	c0.321-0.004,0.602,0.071,0.842,0.217c0.239,0.15,0.438,0.396,0.598,0.739c0.158,0.339,0.278,0.798,0.358,1.367
	c0.081,0.569,0.123,1.276,0.127,2.114h0.972c-0.002-0.893-0.047-1.64-0.14-2.24s-0.226-1.086-0.398-1.45
	c-0.174-0.367-0.383-0.64-0.628-0.821c-0.245-0.178-0.52-0.296-0.826-0.344c0.275-0.043,0.521-0.134,0.738-0.272
	c0.215-0.139,0.397-0.364,0.547-0.676c0.148-0.312,0.262-0.754,0.339-1.319c0.077-0.569,0.116-1.304,0.116-2.205H113.354z"/>
<path fill="#FFFFFF" d="M122.547,9.193c-0.002,0.458-0.116,0.877-0.341,1.26c-0.225,0.379-0.551,0.684-0.977,0.913
	c-0.426,0.233-0.941,0.352-1.547,0.355c-0.539,0-1.016-0.095-1.426-0.28c-0.411-0.19-0.732-0.47-0.965-0.842
	c-0.232-0.375-0.351-0.837-0.355-1.391V8.96c0.004-0.466,0.121-0.881,0.352-1.241c0.23-0.355,0.551-0.64,0.961-0.841
	c0.411-0.206,0.889-0.308,1.434-0.312c0.438,0,0.831,0.067,1.183,0.202c0.351,0.13,0.652,0.308,0.903,0.533
	c0.25,0.226,0.441,0.478,0.576,0.763c0.133,0.281,0.201,0.577,0.202,0.881V9.193z M123.485,12.342V5.357
	c0.001-0.316-0.059-0.628-0.177-0.937c-0.118-0.308-0.308-0.588-0.565-0.837c-0.258-0.253-0.595-0.455-1.011-0.604
	s-0.921-0.229-1.513-0.233c-0.684,0.004-1.285,0.067-1.809,0.186s-0.942,0.261-1.256,0.435v0.822
	c0.215-0.119,0.479-0.229,0.789-0.332c0.311-0.099,0.649-0.182,1.016-0.245c0.367-0.06,0.742-0.091,1.125-0.095
	c0.621,0.008,1.111,0.099,1.472,0.281c0.36,0.178,0.616,0.415,0.769,0.703c0.152,0.289,0.227,0.597,0.222,0.924v2.027
	c-0.187-0.352-0.432-0.648-0.733-0.885c-0.303-0.237-0.646-0.419-1.034-0.542c-0.388-0.118-0.804-0.182-1.247-0.182
	c-0.739,0.008-1.373,0.15-1.902,0.427c-0.529,0.276-0.936,0.66-1.219,1.142c-0.283,0.486-0.426,1.039-0.429,1.663v0.17
	c0.003,0.553,0.093,1.031,0.27,1.434c0.177,0.403,0.42,0.739,0.731,1.003c0.311,0.261,0.67,0.458,1.076,0.585
	c0.406,0.13,0.842,0.193,1.306,0.193c0.495-0.004,0.96-0.075,1.391-0.217c0.433-0.142,0.806-0.348,1.12-0.616
	c0.314-0.272,0.543-0.597,0.688-0.976l0.066,1.691H123.485z"/>
<polygon fill="#FFFFFF" points="52.482,28.421 53.47,28.421 53.47,19.947 58.645,19.947 58.645,28.421 59.633,28.421 59.633,19.093 
	52.482,19.093 "/>
<path fill="#FFFFFF" d="M69.265,23.762c0.002,1.372-0.273,2.391-0.822,3.059c-0.55,0.668-1.381,0.999-2.492,0.995
	c-0.689,0.004-1.277-0.138-1.763-0.427c-0.485-0.284-0.858-0.727-1.114-1.323c-0.258-0.601-0.387-1.367-0.389-2.304v-0.134
	c-0.001-0.821,0.117-1.532,0.356-2.134c0.238-0.6,0.601-1.062,1.089-1.387c0.488-0.328,1.105-0.493,1.854-0.497
	c0.773,0.008,1.401,0.178,1.885,0.509c0.483,0.336,0.838,0.803,1.062,1.403c0.227,0.601,0.337,1.304,0.334,2.105V23.762z M70.236,24
	v-0.605c0.001-0.651-0.079-1.256-0.243-1.809c-0.164-0.558-0.418-1.043-0.764-1.458s-0.789-0.739-1.332-0.968
	c-0.542-0.233-1.191-0.348-1.947-0.352c-0.688,0.004-1.296,0.114-1.824,0.34c-0.527,0.225-0.972,0.545-1.333,0.955
	c-0.36,0.412-0.634,0.893-0.818,1.45c-0.185,0.562-0.277,1.174-0.278,1.841V24c0.005,1.015,0.181,1.865,0.529,2.547
	c0.349,0.684,0.84,1.197,1.475,1.541s1.385,0.514,2.25,0.514c0.891,0,1.655-0.182,2.294-0.541s1.13-0.881,1.472-1.564
	C70.06,25.81,70.233,24.979,70.236,24z"/>
<polygon fill="#FFFFFF" points="79.528,28.421 79.528,19.093 78.54,19.093 78.54,23.364 73.281,23.364 73.281,19.093 72.294,19.093 
	72.294,28.421 73.281,28.421 73.281,24.114 78.54,24.114 78.54,28.421 "/>
<path fill="#FFFFFF" d="M86.981,28.421h0.955v-9.328h-0.955v4.603h-2.428c-0.416,0-0.774-0.079-1.076-0.241
	c-0.303-0.162-0.536-0.399-0.701-0.707c-0.164-0.308-0.248-0.684-0.25-1.126v-2.528h-0.971v2.528
	c0.002,0.601,0.119,1.118,0.355,1.553s0.581,0.766,1.036,1.004c0.456,0.236,1.013,0.355,1.673,0.355h2.361V28.421z"/>
<polygon fill="#FFFFFF" points="91.284,28.421 91.284,28.185 96.292,20.815 96.292,28.421 97.196,28.421 97.196,19.093 
	96.292,19.093 96.292,19.327 91.284,26.729 91.284,19.093 90.38,19.093 90.38,28.421 "/>
<path fill="#FFFFFF" d="M104.769,19.093c0.001,0.845-0.025,1.536-0.082,2.078c-0.057,0.545-0.15,0.964-0.285,1.265
	c-0.133,0.3-0.314,0.509-0.545,0.623c-0.229,0.119-0.518,0.174-0.863,0.17c-0.046,0-0.154,0-0.324,0c-0.171,0-0.371,0-0.6,0
	s-0.454,0-0.675,0c-0.222,0-0.405,0-0.552,0s-0.223,0-0.228,0v-4.136h-0.972v9.328h0.972V23.98h2.462
	c0.322,0,0.603,0.071,0.842,0.222c0.24,0.15,0.439,0.395,0.598,0.738c0.159,0.34,0.279,0.795,0.359,1.368
	c0.08,0.568,0.123,1.275,0.127,2.113h0.971c-0.001-0.893-0.047-1.639-0.139-2.24c-0.093-0.604-0.226-1.086-0.398-1.45
	c-0.174-0.367-0.383-0.641-0.629-0.822c-0.244-0.182-0.52-0.296-0.826-0.344c0.276-0.043,0.522-0.134,0.738-0.272
	c0.215-0.138,0.397-0.363,0.547-0.679c0.148-0.312,0.262-0.751,0.34-1.316c0.076-0.568,0.115-1.304,0.116-2.204H104.769z"/>
<path fill="#FFFFFF" d="M115.2,23.762c0.002,1.372-0.273,2.391-0.822,3.059c-0.55,0.668-1.381,0.999-2.493,0.995
	c-0.688,0.004-1.276-0.138-1.762-0.427c-0.485-0.284-0.858-0.727-1.114-1.323c-0.258-0.601-0.387-1.367-0.39-2.304v-0.134
	c-0.001-0.821,0.118-1.532,0.356-2.134c0.238-0.6,0.602-1.062,1.09-1.387c0.488-0.328,1.105-0.493,1.854-0.497
	c0.772,0.008,1.401,0.178,1.885,0.509c0.483,0.336,0.838,0.803,1.062,1.403c0.226,0.601,0.337,1.304,0.334,2.105V23.762z
	 M116.172,24v-0.605c0.001-0.651-0.08-1.256-0.243-1.809c-0.164-0.558-0.419-1.043-0.764-1.458
	c-0.346-0.415-0.789-0.739-1.332-0.968c-0.542-0.233-1.191-0.348-1.948-0.352c-0.688,0.004-1.295,0.114-1.823,0.34
	c-0.528,0.225-0.973,0.545-1.334,0.955c-0.359,0.412-0.633,0.893-0.818,1.45c-0.185,0.562-0.277,1.174-0.277,1.841V24
	c0.004,1.015,0.181,1.865,0.529,2.547c0.348,0.684,0.84,1.197,1.475,1.541s1.385,0.514,2.249,0.514c0.892,0,1.656-0.182,2.295-0.541
	s1.13-0.881,1.472-1.564C115.995,25.81,116.168,24.979,116.172,24z"/>
<path fill="#FFFFFF" d="M124.006,25.707c0.003,0.632-0.17,1.114-0.519,1.45c-0.35,0.336-0.891,0.506-1.625,0.51H119.2v-3.836h2.779
	c0.453,0.004,0.828,0.082,1.129,0.236c0.3,0.158,0.524,0.375,0.674,0.656C123.931,25.004,124.006,25.331,124.006,25.707z
	 M123.655,21.471c-0.006,0.521-0.139,0.916-0.4,1.193c-0.263,0.272-0.626,0.41-1.091,0.414H119.2v-3.199h2.68
	c0.572,0,1.01,0.127,1.314,0.387C123.498,20.528,123.651,20.926,123.655,21.471z M125.011,25.759c0-0.411-0.078-0.788-0.232-1.124
	c-0.153-0.335-0.383-0.615-0.686-0.833s-0.678-0.352-1.125-0.407c0.379-0.047,0.688-0.166,0.928-0.359
	c0.239-0.193,0.416-0.438,0.528-0.734c0.113-0.301,0.169-0.633,0.169-1c0-0.422-0.089-0.794-0.269-1.121
	c-0.18-0.324-0.454-0.582-0.826-0.768c-0.371-0.189-0.844-0.284-1.418-0.287h-3.852v9.295h3.769c0.968,0,1.711-0.225,2.229-0.672
	C124.743,27.303,125.006,26.64,125.011,25.759z"/>
<path fill="#FFFFFF" d="M17.365,20.476L11.882,2.292l-5.166,0.02C6.087,2.315,5.57,1.809,5.57,1.173
	C5.566,0.545,6.075,0.027,6.708,0.027L12.727,0c0.504-0.004,0.954,0.324,1.101,0.81l5.484,18.193h16.821l4.76-14.732H21.081
	l2.71,9.888c0.168,0.609-0.193,1.237-0.801,1.406c-0.61,0.166-1.238-0.193-1.406-0.802L18.477,3.433c-0.2-0.73,0.35-1.45,1.104-1.45
	h22.886c0.775,0,1.327,0.759,1.086,1.498l-5.501,17.015c-0.152,0.474-0.594,0.794-1.087,0.794H18.463
	C17.957,21.29,17.513,20.961,17.365,20.476z"/>
<path fill-rule="evenodd" clip-rule="evenodd" fill="#FFFFFF" d="M20.717,23.992c1.055-1.059,2.767-1.059,3.823,0
	c1.055,1.056,1.055,2.766,0,3.821c-1.057,1.06-2.769,1.06-3.823,0C19.66,26.758,19.66,25.048,20.717,23.992z"/>
<path fill-rule="evenodd" clip-rule="evenodd" fill="#FFFFFF" d="M30.507,23.992c1.056-1.059,2.768-1.059,3.823,0
	c1.056,1.056,1.056,2.766,0,3.821c-1.056,1.06-2.768,1.06-3.823,0C29.451,26.758,29.451,25.048,30.507,23.992z"/>
<path fill="#FFFFFF" d="M0.629,9.505c-0.003-0.628,0.505-1.146,1.14-1.146L5.57,8.344v2.287l-3.794,0.012
	C1.146,10.647,0.629,10.137,0.629,9.505z"/>
<path fill="#FFFFFF" d="M10.079,9.505c0.003-0.628-0.504-1.149-1.139-1.149L5.139,8.339v2.288l3.794,0.016
	C9.562,10.647,10.079,10.137,10.079,9.505z"/>
<path fill="#FFFFFF" d="M3.613,20.148c-0.003-0.628,0.505-1.146,1.139-1.146l3.802-0.016v2.287L4.759,21.29
	C4.13,21.29,3.613,20.784,3.613,20.148z"/>
<path fill="#FFFFFF" d="M12.549,20.148c0.003-0.628-0.505-1.146-1.139-1.146l-3.801-0.016v2.287l3.793,0.016
	C12.031,21.29,12.549,20.784,12.549,20.148z"/>
<path fill="#FFFFFF" d="M24.155,8.798c-0.003-0.628,0.505-1.146,1.14-1.146l3.801-0.016v2.288l-3.794,0.016
	C24.673,9.939,24.155,9.434,24.155,8.798z"/>
<path fill="#FFFFFF" d="M33.605,8.798c0.003-0.628-0.505-1.146-1.139-1.146l-3.802-0.016V9.92l3.794,0.016
	C33.088,9.939,33.605,9.43,33.605,8.798z"/>
<path fill="#FFFFFF" d="M9.622,16.071l-8.223-0.016H1.146C0.517,16.059,0,15.553,0,14.917c-0.003-0.628,0.505-1.146,1.139-1.146
	l8.491,0.016c0.633,0,1.142,0.518,1.139,1.146C10.769,15.569,10.251,16.075,9.622,16.071z"/>
<path fill="#FFFFFF" d="M32.324,15.628l-9.349-0.016h-0.253c-0.629,0.004-1.146-0.502-1.146-1.138
	c-0.003-0.628,0.506-1.146,1.14-1.146l9.616,0.016c0.634,0,1.143,0.518,1.139,1.146C33.471,15.123,32.954,15.632,32.324,15.628z"/>
<polygon fill="#FFFFFF" points="31.522,14.593 33.732,7.751 35.689,9.134 35.354,10.173 33.887,14.751 "/>
<path fill="#FFFFFF" d="M35.74,8.798c0.003-0.628-0.51-1.146-1.149-1.146l-3.84-0.016V9.92l3.831,0.016
	c0.427,0.004,0.803-0.225,1.004-0.569C35.684,9.201,35.74,9.007,35.74,8.798z"/>
<path fill="#FFFFFF" d="M32.77,15.628l-2.619-0.004v-2.284l2.627,0.004c0.634,0,1.143,0.518,1.139,1.146
	C33.916,15.123,33.399,15.632,32.77,15.628z"/>
</svg>
