<?xml version="1.0" encoding="utf-8"?>
<!-- Generator: Adobe Illustrator 16.0.0, SVG Export Plug-In . SVG Version: 6.00 Build 0)  -->
<!DOCTYPE svg PUBLIC "-//W3C//DTD SVG 1.1//EN" "http://www.w3.org/Graphics/SVG/1.1/DTD/svg11.dtd">
<svg version="1.1" id="Layer_1" xmlns="http://www.w3.org/2000/svg" xmlns:xlink="http://www.w3.org/1999/xlink" x="0px" y="0px"
	 width="31px" height="48px" viewBox="0 0 31 48" enable-background="new 0 0 31 48" xml:space="preserve">
<polygon fill-rule="evenodd" clip-rule="evenodd" fill="#FFFFFF" points="0.002,47.934 0.002,0 2.434,1.691 3.65,0.845 4.32,0.379 
	4.991,0.845 6.207,1.691 7.423,0.845 8.092,0.379 8.763,0.845 9.979,1.691 11.195,0.845 11.865,0.379 12.535,0.845 13.751,1.691 
	14.967,0.845 15.638,0.379 16.309,0.845 17.523,1.691 18.74,0.845 19.41,0.379 20.08,0.845 21.297,1.691 22.512,0.845 23.183,0.379 
	23.854,0.845 25.068,1.691 26.285,0.845 26.955,0.379 27.625,0.845 28.842,1.691 30.058,0.845 30.729,0.379 30.754,0.399 
	30.754,4.128 30.754,30.887 30.754,30.887 30.754,32.166 30.754,35.893 30.754,47.934 "/>
<rect x="2.161" y="6.408" fill-rule="evenodd" clip-rule="evenodd" fill="#808080" width="10.742" height="1.229"/>
<rect x="2.162" y="13.029" fill-rule="evenodd" clip-rule="evenodd" fill="#808080" width="4.755" height="1.229"/>
<rect x="2.162" y="15.558" fill-rule="evenodd" clip-rule="evenodd" fill="#808080" width="5.555" height="1.232"/>
<rect x="2.162" y="18.58" fill-rule="evenodd" clip-rule="evenodd" fill="#808080" width="4.104" height="1.229"/>
<rect x="2.162" y="21.476" fill-rule="evenodd" clip-rule="evenodd" fill="#808080" width="3.214" height="1.229"/>
<rect x="18.123" y="21.476" fill-rule="evenodd" clip-rule="evenodd" fill="#808080" width="9.973" height="1.229"/>
<rect x="23.99" y="18.58" fill-rule="evenodd" clip-rule="evenodd" fill="#808080" width="4.105" height="1.229"/>
<rect x="15.677" y="18.58" fill-rule="evenodd" clip-rule="evenodd" fill="#808080" width="6.18" height="1.229"/>
<rect x="19.547" y="15.558" fill-rule="evenodd" clip-rule="evenodd" fill="#808080" width="8.549" height="1.232"/>
<rect x="21.502" y="13.029" fill-rule="evenodd" clip-rule="evenodd" fill="#808080" width="6.594" height="1.229"/>
<rect x="25.473" y="29.029" fill-rule="evenodd" clip-rule="evenodd" fill="#808080" width="2.623" height="1.229"/>
<rect x="14.688" y="29.029" fill-rule="evenodd" clip-rule="evenodd" fill="#808080" width="9.438" height="1.229"/>
<rect x="0.583" y="27.059" fill-rule="evenodd" clip-rule="evenodd" fill="#E6E6E6" width="29.59" height="0.461"/>
<rect x="0.583" y="9.517" fill-rule="evenodd" clip-rule="evenodd" fill="#E6E6E6" width="29.59" height="0.462"/>
<rect x="2.162" y="38.176" fill-rule="evenodd" clip-rule="evenodd" fill="#808080" width="10.74" height="1.229"/>
<rect x="2.162" y="44.797" fill-rule="evenodd" clip-rule="evenodd" fill="#808080" width="4.754" height="1.229"/>
<rect x="21.503" y="44.797" fill-rule="evenodd" clip-rule="evenodd" fill="#808080" width="6.593" height="1.229"/>
<rect x="0.585" y="41.283" fill-rule="evenodd" clip-rule="evenodd" fill="#E6E6E6" width="29.587" height="0.463"/>
<rect y="47.174" fill-rule="evenodd" clip-rule="evenodd" fill="#E6E6E6" width="30.756" height="0.76"/>
</svg>
